<mxfile host="app.diagrams.net" modified="2020-09-16T09:02:10.815Z" agent="5.0 (Macintosh; Intel Mac OS X 10_14_6) AppleWebKit/537.36 (KHTML, like Gecko) Chrome/84.0.4147.105 Safari/537.36" etag="gllyIsbDV8L6OvkdXEq_" version="13.7.1" type="github">
  <diagram id="OJfU_61ZrNCylvfCMw03" name="Page-1">
    <mxGraphModel dx="1186" dy="542" grid="1" gridSize="10" guides="1" tooltips="1" connect="1" arrows="1" fold="1" page="1" pageScale="1" pageWidth="3300" pageHeight="4681" math="0" shadow="0">
      <root>
        <mxCell id="0" />
        <mxCell id="1" parent="0" />
        <mxCell id="8aUG72FUFNIAJ1knr8W7-1" value="鲨鱼" style="ellipse;shape=cloud;whiteSpace=wrap;html=1;align=center;" parent="1" vertex="1">
          <mxGeometry x="288" y="510" width="100" height="60" as="geometry" />
        </mxCell>
        <mxCell id="8aUG72FUFNIAJ1knr8W7-2" value="" style="shape=link;html=1;" parent="1" edge="1">
          <mxGeometry width="100" relative="1" as="geometry">
            <mxPoint x="230" y="630" as="sourcePoint" />
            <mxPoint x="1400" y="630" as="targetPoint" />
          </mxGeometry>
        </mxCell>
        <mxCell id="8aUG72FUFNIAJ1knr8W7-3" value="" style="shape=singleArrow;direction=south;whiteSpace=wrap;html=1;" parent="1" vertex="1">
          <mxGeometry x="319" y="570" width="38" height="60" as="geometry" />
        </mxCell>
        <mxCell id="8aUG72FUFNIAJ1knr8W7-4" value="消息" style="text;html=1;strokeColor=none;fillColor=none;align=center;verticalAlign=middle;whiteSpace=wrap;rounded=0;" parent="1" vertex="1">
          <mxGeometry x="347" y="590" width="40" height="20" as="geometry" />
        </mxCell>
        <mxCell id="8aUG72FUFNIAJ1knr8W7-5" value="班课" style="ellipse;shape=cloud;whiteSpace=wrap;html=1;align=center;" parent="1" vertex="1">
          <mxGeometry x="427" y="510" width="100" height="60" as="geometry" />
        </mxCell>
        <mxCell id="8aUG72FUFNIAJ1knr8W7-6" value="" style="shape=singleArrow;direction=south;whiteSpace=wrap;html=1;" parent="1" vertex="1">
          <mxGeometry x="459" y="570" width="38" height="60" as="geometry" />
        </mxCell>
        <mxCell id="8aUG72FUFNIAJ1knr8W7-7" value="消息" style="text;html=1;strokeColor=none;fillColor=none;align=center;verticalAlign=middle;whiteSpace=wrap;rounded=0;" parent="1" vertex="1">
          <mxGeometry x="487" y="590" width="40" height="20" as="geometry" />
        </mxCell>
        <mxCell id="8aUG72FUFNIAJ1knr8W7-8" value="worker" style="rounded=1;whiteSpace=wrap;html=1;" parent="1" vertex="1">
          <mxGeometry x="530" y="670" width="120" height="60" as="geometry" />
        </mxCell>
        <mxCell id="8aUG72FUFNIAJ1knr8W7-9" value="biz-service" style="rounded=1;whiteSpace=wrap;html=1;" parent="1" vertex="1">
          <mxGeometry x="716" y="670" width="120" height="60" as="geometry" />
        </mxCell>
        <mxCell id="8aUG72FUFNIAJ1knr8W7-10" value="&lt;span&gt;data-biz&lt;/span&gt;" style="rounded=1;whiteSpace=wrap;html=1;" parent="1" vertex="1">
          <mxGeometry x="896" y="670" width="120" height="60" as="geometry" />
        </mxCell>
        <mxCell id="8aUG72FUFNIAJ1knr8W7-11" value="中台" style="ellipse;shape=cloud;whiteSpace=wrap;html=1;align=center;" parent="1" vertex="1">
          <mxGeometry x="573" y="510" width="100" height="60" as="geometry" />
        </mxCell>
        <mxCell id="8aUG72FUFNIAJ1knr8W7-12" value="" style="shape=singleArrow;direction=south;whiteSpace=wrap;html=1;" parent="1" vertex="1">
          <mxGeometry x="605" y="570" width="38" height="60" as="geometry" />
        </mxCell>
        <mxCell id="8aUG72FUFNIAJ1knr8W7-13" value="订单" style="ellipse;shape=cloud;whiteSpace=wrap;html=1;align=center;" parent="1" vertex="1">
          <mxGeometry x="723" y="510" width="100" height="60" as="geometry" />
        </mxCell>
        <mxCell id="8aUG72FUFNIAJ1knr8W7-14" value="" style="shape=singleArrow;direction=south;whiteSpace=wrap;html=1;" parent="1" vertex="1">
          <mxGeometry x="755" y="570" width="38" height="60" as="geometry" />
        </mxCell>
        <mxCell id="8aUG72FUFNIAJ1knr8W7-15" value="消息" style="text;html=1;strokeColor=none;fillColor=none;align=center;verticalAlign=middle;whiteSpace=wrap;rounded=0;" parent="1" vertex="1">
          <mxGeometry x="783" y="590" width="40" height="20" as="geometry" />
        </mxCell>
        <mxCell id="8aUG72FUFNIAJ1knr8W7-16" value="" style="shape=link;html=1;" parent="1" edge="1">
          <mxGeometry width="100" relative="1" as="geometry">
            <mxPoint x="240" y="770" as="sourcePoint" />
            <mxPoint x="1398" y="770" as="targetPoint" />
          </mxGeometry>
        </mxCell>
        <mxCell id="8aUG72FUFNIAJ1knr8W7-17" value="" style="shape=singleArrow;direction=south;whiteSpace=wrap;html=1;" parent="1" vertex="1">
          <mxGeometry x="306" y="790" width="38" height="60" as="geometry" />
        </mxCell>
        <mxCell id="8aUG72FUFNIAJ1knr8W7-18" value="" style="shape=singleArrow;direction=south;whiteSpace=wrap;html=1;" parent="1" vertex="1">
          <mxGeometry x="521" y="790" width="38" height="60" as="geometry" />
        </mxCell>
        <mxCell id="8aUG72FUFNIAJ1knr8W7-19" value="构建" style="text;html=1;strokeColor=none;fillColor=none;align=center;verticalAlign=middle;whiteSpace=wrap;rounded=0;" parent="1" vertex="1">
          <mxGeometry x="329" y="810" width="40" height="20" as="geometry" />
        </mxCell>
        <mxCell id="8aUG72FUFNIAJ1knr8W7-20" value="构建" style="text;html=1;strokeColor=none;fillColor=none;align=center;verticalAlign=middle;whiteSpace=wrap;rounded=0;" parent="1" vertex="1">
          <mxGeometry x="550" y="810" width="40" height="20" as="geometry" />
        </mxCell>
        <mxCell id="8aUG72FUFNIAJ1knr8W7-21" value="双师" style="ellipse;shape=cloud;whiteSpace=wrap;html=1;align=center;" parent="1" vertex="1">
          <mxGeometry x="853" y="510" width="100" height="60" as="geometry" />
        </mxCell>
        <mxCell id="8aUG72FUFNIAJ1knr8W7-22" value="" style="shape=singleArrow;direction=south;whiteSpace=wrap;html=1;" parent="1" vertex="1">
          <mxGeometry x="885" y="570" width="38" height="60" as="geometry" />
        </mxCell>
        <mxCell id="8aUG72FUFNIAJ1knr8W7-23" value="" style="shape=singleArrow;direction=south;whiteSpace=wrap;html=1;" parent="1" vertex="1">
          <mxGeometry x="742" y="790" width="38" height="60" as="geometry" />
        </mxCell>
        <mxCell id="8aUG72FUFNIAJ1knr8W7-24" value="构建" style="text;html=1;strokeColor=none;fillColor=none;align=center;verticalAlign=middle;whiteSpace=wrap;rounded=0;" parent="1" vertex="1">
          <mxGeometry x="765" y="810" width="40" height="20" as="geometry" />
        </mxCell>
        <mxCell id="8aUG72FUFNIAJ1knr8W7-25" value="" style="shape=singleArrow;direction=south;whiteSpace=wrap;html=1;" parent="1" vertex="1">
          <mxGeometry x="957" y="790" width="38" height="60" as="geometry" />
        </mxCell>
        <mxCell id="8aUG72FUFNIAJ1knr8W7-26" value="构建直播任务状态" style="text;html=1;strokeColor=none;fillColor=none;align=center;verticalAlign=middle;whiteSpace=wrap;rounded=0;" parent="1" vertex="1">
          <mxGeometry x="994" y="810" width="40" height="20" as="geometry" />
        </mxCell>
        <mxCell id="8aUG72FUFNIAJ1knr8W7-27" value="题库" style="ellipse;shape=cloud;whiteSpace=wrap;html=1;align=center;" parent="1" vertex="1">
          <mxGeometry x="994" y="510" width="100" height="60" as="geometry" />
        </mxCell>
        <mxCell id="8aUG72FUFNIAJ1knr8W7-28" value="" style="shape=singleArrow;direction=south;whiteSpace=wrap;html=1;" parent="1" vertex="1">
          <mxGeometry x="1025" y="570" width="38" height="60" as="geometry" />
        </mxCell>
        <mxCell id="8aUG72FUFNIAJ1knr8W7-29" value="消息" style="text;html=1;strokeColor=none;fillColor=none;align=center;verticalAlign=middle;whiteSpace=wrap;rounded=0;" parent="1" vertex="1">
          <mxGeometry x="1060" y="590" width="40" height="20" as="geometry" />
        </mxCell>
        <mxCell id="8aUG72FUFNIAJ1knr8W7-30" value="user_product" style="swimlane;childLayout=stackLayout;horizontal=1;startSize=30;horizontalStack=0;rounded=1;fontSize=14;fontStyle=0;strokeWidth=2;resizeParent=0;resizeLast=1;shadow=0;dashed=0;align=center;" parent="1" vertex="1">
          <mxGeometry x="239" y="850" width="181" height="220" as="geometry" />
        </mxCell>
        <mxCell id="8aUG72FUFNIAJ1knr8W7-31" value="+userId&#xa;+productId&#xa;+roleId&#xa;+冗余subjectId&#xa;+冗余liveStartTime&#xa;+冗余liveEndTime&#xa;+trade off是否需要增加状态&#xa;构建产品状态(进行中,未开始,已结束)&#xa;+冗余overTime" style="align=left;strokeColor=none;fillColor=none;spacingLeft=4;fontSize=12;verticalAlign=top;resizable=0;rotatable=0;part=1;" parent="8aUG72FUFNIAJ1knr8W7-30" vertex="1">
          <mxGeometry y="30" width="181" height="190" as="geometry" />
        </mxCell>
        <mxCell id="8aUG72FUFNIAJ1knr8W7-32" value="live_status" style="swimlane;childLayout=stackLayout;horizontal=1;startSize=30;horizontalStack=0;rounded=1;fontSize=14;fontStyle=0;strokeWidth=2;resizeParent=0;resizeLast=1;shadow=0;dashed=0;align=center;" parent="1" vertex="1">
          <mxGeometry x="890" y="850" width="160" height="220" as="geometry" />
        </mxCell>
        <mxCell id="8aUG72FUFNIAJ1knr8W7-33" value="+productId&#xa;+liveId&#xa;+liveStartTime&#xa;+liveEndTime&#xa;+liveStatus&#xa;+lessonId&#xa;(不需要使用userId 降维)" style="align=left;strokeColor=none;fillColor=none;spacingLeft=4;fontSize=12;verticalAlign=top;resizable=0;rotatable=0;part=1;" parent="8aUG72FUFNIAJ1knr8W7-32" vertex="1">
          <mxGeometry y="30" width="160" height="190" as="geometry" />
        </mxCell>
        <mxCell id="8aUG72FUFNIAJ1knr8W7-34" value="product_live" style="swimlane;childLayout=stackLayout;horizontal=1;startSize=30;horizontalStack=0;rounded=1;fontSize=14;fontStyle=0;strokeWidth=2;resizeParent=0;resizeLast=1;shadow=0;dashed=0;align=center;" parent="1" vertex="1">
          <mxGeometry x="460" y="850" width="160" height="220" as="geometry" />
        </mxCell>
        <mxCell id="8aUG72FUFNIAJ1knr8W7-35" value="+productId&#xa;+liveId&#xa;+liveStartTime&#xa;+liveEndTime&#xa;+家长会&#xa;+赠课&#xa;+上下课时间&#xa;+讲次(基于学习路径)&#xa;+..." style="align=left;strokeColor=none;fillColor=none;spacingLeft=4;fontSize=12;verticalAlign=top;resizable=0;rotatable=0;part=1;" parent="8aUG72FUFNIAJ1knr8W7-34" vertex="1">
          <mxGeometry y="30" width="160" height="190" as="geometry" />
        </mxCell>
        <mxCell id="8aUG72FUFNIAJ1knr8W7-36" value="pe_product_Info" style="swimlane;childLayout=stackLayout;horizontal=1;startSize=30;horizontalStack=0;rounded=1;fontSize=14;fontStyle=0;strokeWidth=2;resizeParent=0;resizeLast=1;shadow=0;dashed=0;align=center;" parent="1" vertex="1">
          <mxGeometry x="675" y="850" width="160" height="220" as="geometry" />
        </mxCell>
        <mxCell id="8aUG72FUFNIAJ1knr8W7-37" value="+productId&#xa;+liveId&#xa;+liveStartTime&#xa;+liveEndTime&#xa;+productLine产品线&#xa;+考季id&#xa;+&lt;引流/短期班/长期班/测试/...&gt;&#xa;" style="align=left;strokeColor=none;fillColor=none;spacingLeft=4;fontSize=12;verticalAlign=top;resizable=0;rotatable=0;part=1;" parent="8aUG72FUFNIAJ1knr8W7-36" vertex="1">
          <mxGeometry y="30" width="160" height="190" as="geometry" />
        </mxCell>
        <mxCell id="8aUG72FUFNIAJ1knr8W7-38" value="" style="shape=singleArrow;direction=south;whiteSpace=wrap;html=1;" parent="1" vertex="1">
          <mxGeometry x="1167" y="790" width="38" height="60" as="geometry" />
        </mxCell>
        <mxCell id="8aUG72FUFNIAJ1knr8W7-39" value="1.回放(只构建观看是否满足条件,不存储时长)&lt;br&gt;2.出勤时长" style="text;html=1;strokeColor=none;fillColor=none;align=center;verticalAlign=middle;whiteSpace=wrap;rounded=0;" parent="1" vertex="1">
          <mxGeometry x="1190" y="800" width="80" height="20" as="geometry" />
        </mxCell>
        <mxCell id="8aUG72FUFNIAJ1knr8W7-40" value="live_wath_duration" style="swimlane;childLayout=stackLayout;horizontal=1;startSize=30;horizontalStack=0;rounded=1;fontSize=14;fontStyle=0;strokeWidth=2;resizeParent=0;resizeLast=1;shadow=0;dashed=0;align=center;" parent="1" vertex="1">
          <mxGeometry x="1100" y="850" width="160" height="220" as="geometry" />
        </mxCell>
        <mxCell id="8aUG72FUFNIAJ1knr8W7-41" value="+productId&#xa;+liveId&#xa;+liveStartTime&#xa;+liveEndTime&#xa;+userId&#xa;+type(1.回放 2.出勤)" style="align=left;strokeColor=none;fillColor=none;spacingLeft=4;fontSize=12;verticalAlign=top;resizable=0;rotatable=0;part=1;" parent="8aUG72FUFNIAJ1knr8W7-40" vertex="1">
          <mxGeometry y="30" width="160" height="190" as="geometry" />
        </mxCell>
        <mxCell id="8aUG72FUFNIAJ1knr8W7-42" value="&lt;div&gt;直播课件/&lt;span&gt;讲义/进门测/出门测/课后巩固/考试/随堂测 任务&lt;/span&gt;&lt;/div&gt;&lt;div&gt;&lt;br&gt;&lt;/div&gt;" style="shape=callout;whiteSpace=wrap;html=1;perimeter=calloutPerimeter;strokeColor=#FF6666;" parent="1" vertex="1">
          <mxGeometry x="850" y="420" width="130" height="90" as="geometry" />
        </mxCell>
        <mxCell id="8aUG72FUFNIAJ1knr8W7-43" value="目前消费了订单成功消息(根据tag区分&lt;br&gt;类型)" style="shape=callout;whiteSpace=wrap;html=1;perimeter=calloutPerimeter;strokeColor=#FF6666;" parent="1" vertex="1">
          <mxGeometry x="711" y="420" width="130" height="90" as="geometry" />
        </mxCell>
        <mxCell id="8aUG72FUFNIAJ1knr8W7-44" value="上下课消息、课后切辅导、直播平台切换" style="shape=callout;whiteSpace=wrap;html=1;perimeter=calloutPerimeter;strokeColor=#FF6666;" parent="1" vertex="1">
          <mxGeometry x="560" y="420" width="130" height="90" as="geometry" />
        </mxCell>
        <mxCell id="8aUG72FUFNIAJ1knr8W7-45" value="预习视频、词句轮卡、老师补课、监听班课主班变化、班课课次变化消息通知" style="shape=callout;whiteSpace=wrap;html=1;perimeter=calloutPerimeter;strokeColor=#FF6666;" parent="1" vertex="1">
          <mxGeometry x="410" y="420" width="130" height="90" as="geometry" />
        </mxCell>
        <mxCell id="8aUG72FUFNIAJ1knr8W7-46" value="学习路径变更、用户产品变更" style="shape=callout;whiteSpace=wrap;html=1;perimeter=calloutPerimeter;strokeColor=#FF6666;" parent="1" vertex="1">
          <mxGeometry x="269" y="420" width="130" height="90" as="geometry" />
        </mxCell>
        <mxCell id="8aUG72FUFNIAJ1knr8W7-47" value="&lt;div&gt;用户错题&lt;/div&gt;&lt;div&gt;&lt;br&gt;&lt;/div&gt;" style="shape=callout;whiteSpace=wrap;html=1;perimeter=calloutPerimeter;strokeColor=#FF6666;" parent="1" vertex="1">
          <mxGeometry x="990" y="420" width="130" height="90" as="geometry" />
        </mxCell>
        <mxCell id="8aUG72FUFNIAJ1knr8W7-48" value="&lt;div&gt;出勤数据、&lt;/div&gt;&lt;div&gt;到课、有效出勤&lt;/div&gt;、回放观看时长" style="shape=callout;whiteSpace=wrap;html=1;perimeter=calloutPerimeter;strokeColor=#FF6666;" parent="1" vertex="1">
          <mxGeometry x="1150" y="420" width="130" height="90" as="geometry" />
        </mxCell>
        <mxCell id="8aUG72FUFNIAJ1knr8W7-49" value="大数据" style="ellipse;shape=cloud;whiteSpace=wrap;html=1;align=center;" parent="1" vertex="1">
          <mxGeometry x="1165" y="510" width="100" height="60" as="geometry" />
        </mxCell>
        <mxCell id="8aUG72FUFNIAJ1knr8W7-50" value="" style="shape=singleArrow;direction=south;whiteSpace=wrap;html=1;" parent="1" vertex="1">
          <mxGeometry x="1197" y="570" width="38" height="60" as="geometry" />
        </mxCell>
        <mxCell id="8aUG72FUFNIAJ1knr8W7-51" value="消息" style="text;html=1;strokeColor=none;fillColor=none;align=center;verticalAlign=middle;whiteSpace=wrap;rounded=0;" parent="1" vertex="1">
          <mxGeometry x="1225" y="590" width="40" height="20" as="geometry" />
        </mxCell>
        <mxCell id="8aUG72FUFNIAJ1knr8W7-52" value="live-service" style="rounded=1;whiteSpace=wrap;html=1;" parent="1" vertex="1">
          <mxGeometry x="1063" y="670" width="120" height="60" as="geometry" />
        </mxCell>
        <mxCell id="8aUG72FUFNIAJ1knr8W7-53" value="...." style="rounded=1;whiteSpace=wrap;html=1;" parent="1" vertex="1">
          <mxGeometry x="1228" y="670" width="120" height="60" as="geometry" />
        </mxCell>
        <mxCell id="8aUG72FUFNIAJ1knr8W7-54" value="chron service" style="rounded=1;whiteSpace=wrap;html=1;" parent="1" vertex="1">
          <mxGeometry x="347" y="670" width="120" height="60" as="geometry" />
        </mxCell>
        <mxCell id="8aUG72FUFNIAJ1knr8W7-57" style="edgeStyle=orthogonalEdgeStyle;rounded=0;orthogonalLoop=1;jettySize=auto;html=1;exitX=0.5;exitY=1;exitDx=0;exitDy=0;" parent="1" source="8aUG72FUFNIAJ1knr8W7-26" target="8aUG72FUFNIAJ1knr8W7-26" edge="1">
          <mxGeometry relative="1" as="geometry" />
        </mxCell>
      </root>
    </mxGraphModel>
  </diagram>
</mxfile>
